<mxfile host="app.diagrams.net" modified="2024-03-15T14:13:17.251Z" agent="Mozilla/5.0 (Windows NT 10.0; Win64; x64) AppleWebKit/537.36 (KHTML, like Gecko) Chrome/122.0.0.0 Safari/537.36 Edg/122.0.0.0" version="24.0.7" etag="XKd27TcjhC8oxomPXuQQ" type="github">
  <diagram name="第 1 页" id="JeE2c27Bu6EYM7HYvsVZ">
    <mxGraphModel>
      <root>
        <mxCell id="0" />
        <mxCell id="1" parent="0" />
      </root>
    </mxGraphModel>
  </diagram>
</mxfile>
